<svg width="36" height="36" viewBox="0 0 36 36" fill="none" xmlns="http://www.w3.org/2000/svg">
<path d="M25.2812 23.625C25.4271 23.7708 25.5 23.9583 25.5 24.1875C25.5 24.4167 25.4167 24.6146 25.25 24.7812C25.1042 24.9271 24.9167 25 24.6875 25C24.4583 25 24.2708 24.9271 24.125 24.7812L21 21.6562C20.4583 22.0729 19.8438 22.4062 19.1562 22.6562C18.4896 22.8854 17.7708 23 17 23C16.0833 23 15.2292 22.8333 14.4375 22.5C13.6458 22.1667 12.9583 21.7083 12.375 21.125C11.7917 20.5417 11.3333 19.8542 11 19.0625C10.6667 18.2708 10.5 17.4167 10.5 16.5C10.5 15.5833 10.6667 14.7292 11 13.9375C11.3333 13.1458 11.7917 12.4583 12.375 11.875C12.9583 11.2917 13.6458 10.8333 14.4375 10.5C15.2292 10.1667 16.0833 10 17 10C17.9167 10 18.7708 10.1667 19.5625 10.5C20.3542 10.8333 21.0417 11.2917 21.625 11.875C22.2083 12.4583 22.6667 13.1458 23 13.9375C23.3333 14.7292 23.5 15.5833 23.5 16.5C23.5 17.2708 23.375 18 23.125 18.6875C22.8958 19.3542 22.5729 19.9583 22.1562 20.5L25.2812 23.625ZM17 21.4062C17.6875 21.4062 18.3229 21.2812 18.9062 21.0312C19.5104 20.7812 20.0312 20.4375 20.4688 20C20.9271 19.5417 21.2812 19.0208 21.5312 18.4375C21.7812 17.8333 21.9062 17.1875 21.9062 16.5C21.9062 15.8125 21.7812 15.1771 21.5312 14.5938C21.2812 13.9896 20.9271 13.4688 20.4688 13.0312C20.0312 12.5729 19.5104 12.2188 18.9062 11.9688C18.3229 11.7188 17.6875 11.5938 17 11.5938C16.3125 11.5938 15.6667 11.7188 15.0625 11.9688C14.4792 12.2188 13.9583 12.5729 13.5 13.0312C13.0625 13.4688 12.7188 13.9896 12.4688 14.5938C12.2188 15.1771 12.0938 15.8125 12.0938 16.5C12.0938 17.1875 12.2188 17.8333 12.4688 18.4375C12.7188 19.0208 13.0625 19.5417 13.5 20C13.9583 20.4375 14.4792 20.7812 15.0625 21.0312C15.6667 21.2812 16.3125 21.4062 17 21.4062Z" fill="#1D2D3E"/>
</svg>
