<svg width="40" height="40" viewBox="0 0 40 40" fill="none" xmlns="http://www.w3.org/2000/svg">
<rect width="40" height="40" rx="6" fill="white"/>
<path d="M26 24.7812C26.5208 24.7812 26.7812 25.0417 26.7812 25.5625C26.7812 26.25 26.5521 26.8229 26.0938 27.2812C25.6354 27.7396 25.0729 27.9688 24.4062 27.9688H14.8125C14.1458 27.9688 13.5729 27.7396 13.0938 27.2812C12.6354 26.8229 12.4062 26.25 12.4062 25.5625V16C12.4062 15.3125 12.6354 14.7396 13.0938 14.2812C13.5729 13.8229 14.1458 13.5938 14.8125 13.5938H16.4062V12.8125C16.4062 12.2708 16.6771 12 17.2188 12C17.7396 12 18 12.2708 18 12.8125V13.5938H21.2188V12.8125C21.2188 12.2708 21.4792 12 22 12C22.2292 12 22.4167 12.0729 22.5625 12.2188C22.7292 12.3646 22.8125 12.5625 22.8125 12.8125V13.5938H24.4062C25.0729 13.5938 25.6354 13.8229 26.0938 14.2812C26.5521 14.7396 26.7812 15.3125 26.7812 16C26.7812 16.5208 26.5208 16.7812 26 16.7812C25.4583 16.7812 25.1875 16.5208 25.1875 16C25.1875 15.7708 25.1146 15.5833 24.9688 15.4375C24.8229 15.2708 24.6354 15.1875 24.4062 15.1875H22.8125V16C22.8125 16.2292 22.7292 16.4167 22.5625 16.5625C22.4167 16.7083 22.2292 16.7812 22 16.7812C21.4792 16.7812 21.2188 16.5208 21.2188 16V15.1875H18V16C18 16.5208 17.7396 16.7812 17.2188 16.7812C16.6771 16.7812 16.4062 16.5208 16.4062 16V15.1875H14.8125C14.5833 15.1875 14.3958 15.2708 14.25 15.4375C14.1042 15.5833 14.0312 15.7708 14.0312 16V25.5625C14.0312 26.1042 14.2917 26.375 14.8125 26.375H24.4062C24.9271 26.375 25.1875 26.1042 25.1875 25.5625C25.1875 25.0417 25.4583 24.7812 26 24.7812ZM27.3438 20.2188C27.5104 20.3854 27.5938 20.5729 27.5938 20.7812C27.5938 20.9896 27.5104 21.1771 27.3438 21.3438L24.9688 23.75C24.8021 23.9167 24.6146 24 24.4062 24C24.1979 24 24.0104 23.9167 23.8438 23.75C23.6771 23.5833 23.5938 23.3958 23.5938 23.1875C23.5938 22.9792 23.6771 22.7917 23.8438 22.625L24.875 21.5938H21.2188C20.9688 21.5938 20.7708 21.5208 20.625 21.375C20.4792 21.2083 20.4062 21.0104 20.4062 20.7812C20.4062 20.2604 20.6771 20 21.2188 20H24.875L23.8438 18.9375C23.6771 18.7708 23.5938 18.5938 23.5938 18.4062C23.5938 18.1979 23.6771 18.0104 23.8438 17.8438C24.0104 17.6771 24.1979 17.5938 24.4062 17.5938C24.6146 17.5938 24.8021 17.6771 24.9688 17.8438L27.3438 20.2188ZM16.4062 20C16.6354 20 16.8229 20.0729 16.9688 20.2188C17.1354 20.3646 17.2188 20.5521 17.2188 20.7812C17.2188 21.0104 17.1354 21.2083 16.9688 21.375C16.8229 21.5208 16.6354 21.5938 16.4062 21.5938C16.1771 21.5938 15.9896 21.5208 15.8438 21.375C15.6979 21.2083 15.625 21.0104 15.625 20.7812C15.625 20.5521 15.6979 20.3646 15.8438 20.2188C15.9896 20.0729 16.1771 20 16.4062 20ZM18.8125 20C19.0417 20 19.2292 20.0729 19.375 20.2188C19.5208 20.3646 19.5938 20.5521 19.5938 20.7812C19.5938 21.0104 19.5208 21.2083 19.375 21.375C19.2292 21.5208 19.0417 21.5938 18.8125 21.5938C18.5833 21.5938 18.3854 21.5208 18.2188 21.375C18.0729 21.2083 18 21.0104 18 20.7812C18 20.5521 18.0729 20.3646 18.2188 20.2188C18.3854 20.0729 18.5833 20 18.8125 20Z" fill="#1D2D3E"/>
</svg>
