<svg width="36" height="36" viewBox="0 0 36 36" fill="none" xmlns="http://www.w3.org/2000/svg">
<path d="M12.75 11.0625C13.2292 11.0625 13.6354 11.2396 13.9688 11.5938C14.3229 11.9271 14.5 12.3333 14.5 12.8125C14.5 13.2917 14.3229 13.7083 13.9688 14.0625C13.6354 14.3958 13.2292 14.5625 12.75 14.5625C12.2708 14.5625 11.8542 14.3958 11.5 14.0625C11.1667 13.7083 11 13.2917 11 12.8125C11 12.3333 11.1667 11.9271 11.5 11.5938C11.8542 11.2396 12.2708 11.0625 12.75 11.0625ZM18 11.0625C18.4792 11.0625 18.8854 11.2396 19.2188 11.5938C19.5729 11.9271 19.75 12.3333 19.75 12.8125C19.75 13.2917 19.5729 13.7083 19.2188 14.0625C18.8854 14.3958 18.4792 14.5625 18 14.5625C17.5208 14.5625 17.1042 14.3958 16.75 14.0625C16.4167 13.7083 16.25 13.2917 16.25 12.8125C16.25 12.3333 16.4167 11.9271 16.75 11.5938C17.1042 11.2396 17.5208 11.0625 18 11.0625ZM23.25 14.5625C22.7708 14.5625 22.3542 14.3958 22 14.0625C21.6667 13.7083 21.5 13.2917 21.5 12.8125C21.5 12.3333 21.6667 11.9271 22 11.5938C22.3542 11.2396 22.7708 11.0625 23.25 11.0625C23.7292 11.0625 24.1354 11.2396 24.4688 11.5938C24.8229 11.9271 25 12.3333 25 12.8125C25 13.2917 24.8229 13.7083 24.4688 14.0625C24.1354 14.3958 23.7292 14.5625 23.25 14.5625ZM12.75 16.375C13.2292 16.375 13.6354 16.5521 13.9688 16.9062C14.3229 17.2396 14.5 17.6458 14.5 18.125C14.5 18.6042 14.3229 19.0208 13.9688 19.375C13.6354 19.7083 13.2292 19.875 12.75 19.875C12.2708 19.875 11.8542 19.7083 11.5 19.375C11.1667 19.0208 11 18.6042 11 18.125C11 17.6458 11.1667 17.2396 11.5 16.9062C11.8542 16.5521 12.2708 16.375 12.75 16.375ZM18 16.375C18.4792 16.375 18.8854 16.5521 19.2188 16.9062C19.5729 17.2396 19.75 17.6458 19.75 18.125C19.75 18.6042 19.5729 19.0208 19.2188 19.375C18.8854 19.7083 18.4792 19.875 18 19.875C17.5208 19.875 17.1042 19.7083 16.75 19.375C16.4167 19.0208 16.25 18.6042 16.25 18.125C16.25 17.6458 16.4167 17.2396 16.75 16.9062C17.1042 16.5521 17.5208 16.375 18 16.375ZM23.25 16.375C23.7292 16.375 24.1354 16.5521 24.4688 16.9062C24.8229 17.2396 25 17.6458 25 18.125C25 18.6042 24.8229 19.0208 24.4688 19.375C24.1354 19.7083 23.7292 19.875 23.25 19.875C22.7708 19.875 22.3542 19.7083 22 19.375C21.6667 19.0208 21.5 18.6042 21.5 18.125C21.5 17.6458 21.6667 17.2396 22 16.9062C22.3542 16.5521 22.7708 16.375 23.25 16.375ZM12.75 21.5625C13.2292 21.5625 13.6354 21.7396 13.9688 22.0938C14.3229 22.4271 14.5 22.8333 14.5 23.3125C14.5 23.7917 14.3229 24.2083 13.9688 24.5625C13.6354 24.8958 13.2292 25.0625 12.75 25.0625C12.2708 25.0625 11.8542 24.8958 11.5 24.5625C11.1667 24.2083 11 23.7917 11 23.3125C11 22.8333 11.1667 22.4271 11.5 22.0938C11.8542 21.7396 12.2708 21.5625 12.75 21.5625ZM18 21.5625C18.4792 21.5625 18.8854 21.7396 19.2188 22.0938C19.5729 22.4271 19.75 22.8333 19.75 23.3125C19.75 23.7917 19.5729 24.2083 19.2188 24.5625C18.8854 24.8958 18.4792 25.0625 18 25.0625C17.5208 25.0625 17.1042 24.8958 16.75 24.5625C16.4167 24.2083 16.25 23.7917 16.25 23.3125C16.25 22.8333 16.4167 22.4271 16.75 22.0938C17.1042 21.7396 17.5208 21.5625 18 21.5625ZM23.25 21.5625C23.7292 21.5625 24.1354 21.7396 24.4688 22.0938C24.8229 22.4271 25 22.8333 25 23.3125C25 23.7917 24.8229 24.2083 24.4688 24.5625C24.1354 24.8958 23.7292 25.0625 23.25 25.0625C22.7708 25.0625 22.3542 24.8958 22 24.5625C21.6667 24.2083 21.5 23.7917 21.5 23.3125C21.5 22.8333 21.6667 22.4271 22 22.0938C22.3542 21.7396 22.7708 21.5625 23.25 21.5625Z" fill="#1D2D3E"/>
</svg>
