<svg width="36" height="36" viewBox="0 0 36 36" fill="none" xmlns="http://www.w3.org/2000/svg">
<path d="M25.25 22.8438C25.4583 23.1146 25.5625 23.3542 25.5625 23.5625C25.5625 23.6667 25.5521 23.7396 25.5312 23.7812C25.3854 24.0938 25.1146 24.25 24.7188 24.25H20.4688C20.3021 24.75 20 25.1667 19.5625 25.5C19.1458 25.8333 18.6458 26 18.0625 26C17.4792 26 16.9688 25.8333 16.5312 25.5C16.1146 25.1667 15.8229 24.75 15.6562 24.25H11.4062C11.0729 24.25 10.8229 24.1042 10.6562 23.8125C10.5938 23.6458 10.5625 23.5104 10.5625 23.4062C10.5625 23.1979 10.625 23.0312 10.75 22.9062C10.8125 22.8438 10.9062 22.7188 11.0312 22.5312C11.1771 22.3438 11.2708 22.2188 11.3125 22.1562C11.6042 21.7396 11.8229 21.3021 11.9688 20.8438C12.1354 20.3854 12.2188 19.8854 12.2188 19.3438V17.6875C12.2188 17.0208 12.2917 16.3021 12.4375 15.5312C12.5833 14.7604 12.8646 14.0521 13.2812 13.4062C13.7188 12.7188 14.3229 12.1562 15.0938 11.7188C15.8854 11.2604 16.875 11.0312 18.0625 11.0312C19.25 11.0312 20.2292 11.25 21 11.6875C21.7708 12.125 22.375 12.6771 22.8125 13.3438C23.25 14.0104 23.5417 14.7396 23.6875 15.5312C23.8333 16.3021 23.9062 17.0208 23.9062 17.6875V19.3438C23.9062 19.8854 23.9688 20.3854 24.0938 20.8438C24.2396 21.2812 24.4271 21.6458 24.6562 21.9375C24.7396 22.1042 24.8333 22.2708 24.9375 22.4375C25.0417 22.6042 25.1458 22.7396 25.25 22.8438ZM23.0625 22.6875C22.8542 22.2708 22.6458 21.7917 22.4375 21.25C22.25 20.6875 22.1562 20.0521 22.1562 19.3438V17.6875C22.1562 17.1042 22.0938 16.5104 21.9688 15.9062C21.8646 15.2812 21.6458 14.7396 21.3125 14.2812C21.0208 13.8021 20.625 13.4167 20.125 13.125C19.625 12.8333 18.9271 12.6875 18.0312 12.6875C17.1146 12.6875 16.3958 12.8333 15.875 13.125C15.3542 13.4167 14.9688 13.8021 14.7188 14.2812C14.4271 14.7396 14.2188 15.2812 14.0938 15.9062C13.9688 16.5104 13.9062 17.1042 13.9062 17.6875V19.3438C13.9062 20.0521 13.8125 20.6875 13.625 21.25C13.4375 21.7917 13.2188 22.2708 12.9688 22.6875H23.0625Z" fill="#1D2D3E"/>
</svg>
