<svg width="36" height="36" viewBox="0 0 36 36" fill="none" xmlns="http://www.w3.org/2000/svg">
<path d="M18 22.8125C18.3125 22.8125 18.5833 22.6979 18.8125 22.4688C19.0625 22.2188 19.1875 21.9271 19.1875 21.5938C19.1875 21.2812 19.0625 21.0104 18.8125 20.7812C18.5833 20.5312 18.3125 20.4062 18 20.4062C17.6667 20.4062 17.375 20.5312 17.125 20.7812C16.8958 21.0104 16.7812 21.2812 16.7812 21.5938C16.7812 21.9271 16.8958 22.2188 17.125 22.4688C17.375 22.6979 17.6667 22.8125 18 22.8125ZM20.5938 17.625C20.7812 17.3958 20.9271 17.1562 21.0312 16.9062C21.1354 16.6562 21.1875 16.3542 21.1875 16C21.1875 15.5833 21.0938 15.2083 20.9062 14.875C20.7188 14.5208 20.4792 14.2292 20.1875 14C19.8958 13.75 19.5521 13.5625 19.1562 13.4375C18.7812 13.2917 18.3958 13.2188 18 13.2188C17.6042 13.2188 17.2083 13.2917 16.8125 13.4375C16.4375 13.5625 16.0938 13.75 15.7812 14C15.4896 14.2292 15.25 14.5208 15.0625 14.875C14.875 15.2083 14.7812 15.5833 14.7812 16C14.7812 16.25 14.8646 16.4479 15.0312 16.5938C15.2188 16.7396 15.4375 16.8125 15.6875 16.8125C16.2083 16.8125 16.4688 16.5417 16.4688 16C16.4688 15.7083 16.6042 15.4375 16.875 15.1875C17.1458 14.9375 17.5417 14.8125 18.0625 14.8125C18.6042 14.8125 19.0104 14.9375 19.2812 15.1875C19.5521 15.4375 19.6875 15.7083 19.6875 16C19.6875 16.3125 19.6042 16.5521 19.4375 16.7188C19.375 16.7812 19.2812 16.8542 19.1562 16.9375C19.0312 17.0208 18.8958 17.1042 18.75 17.1875C18.6042 17.2708 18.4583 17.3542 18.3125 17.4375C18.1667 17.5 18.0625 17.5521 18 17.5938C17.875 17.6979 17.6771 17.8542 17.4062 18.0625C17.1354 18.25 17 18.5 17 18.8125C17 19.0417 17.1042 19.2604 17.3125 19.4688C17.5417 19.6562 17.8021 19.7083 18.0938 19.625C18.3021 19.5833 18.4479 19.5208 18.5312 19.4375C18.6354 19.3333 18.7083 19.2396 18.75 19.1562C18.8125 19.0521 18.8646 18.9583 18.9062 18.875C18.9688 18.7708 19.0521 18.6875 19.1562 18.625C19.3854 18.5208 19.6354 18.375 19.9062 18.1875C20.1771 18 20.4062 17.8125 20.5938 17.625ZM18 10C19.1042 10 20.1354 10.2083 21.0938 10.625C22.0729 11.0417 22.9271 11.6146 23.6562 12.3438C24.3854 13.0729 24.9583 13.9271 25.375 14.9062C25.7917 15.8646 26 16.8958 26 18C26 19.1042 25.7917 20.1458 25.375 21.125C24.9583 22.0833 24.3854 22.9271 23.6562 23.6562C22.9271 24.3854 22.0729 24.9583 21.0938 25.375C20.1354 25.7917 19.1042 26 18 26C16.8958 26 15.8542 25.7917 14.875 25.375C13.9167 24.9583 13.0729 24.3854 12.3438 23.6562C11.6146 22.9271 11.0417 22.0833 10.625 21.125C10.2083 20.1458 10 19.1042 10 18C10 16.8958 10.2083 15.8646 10.625 14.9062C11.0417 13.9271 11.6146 13.0729 12.3438 12.3438C13.0729 11.6146 13.9167 11.0417 14.875 10.625C15.8542 10.2083 16.8958 10 18 10ZM18 24.4062C18.875 24.4062 19.6979 24.2396 20.4688 23.9062C21.2604 23.5729 21.9375 23.1146 22.5 22.5312C23.0833 21.9479 23.5417 21.2708 23.875 20.5C24.2292 19.7083 24.4062 18.875 24.4062 18C24.4062 17.125 24.2292 16.3021 23.875 15.5312C23.5417 14.7396 23.0833 14.0625 22.5 13.5C21.9375 12.9167 21.2604 12.4583 20.4688 12.125C19.6979 11.7708 18.875 11.5938 18 11.5938C17.125 11.5938 16.2917 11.7708 15.5 12.125C14.7292 12.4583 14.0521 12.9167 13.4688 13.5C12.8854 14.0625 12.4271 14.7396 12.0938 15.5312C11.7604 16.3021 11.5938 17.125 11.5938 18C11.5938 18.875 11.7604 19.7083 12.0938 20.5C12.4271 21.2708 12.8854 21.9479 13.4688 22.5312C14.0521 23.1146 14.7292 23.5729 15.5 23.9062C16.2917 24.2396 17.125 24.4062 18 24.4062Z" fill="#1D2D3E"/>
</svg>
