<svg width="157" height="30" viewBox="0 0 157 30" fill="none" xmlns="http://www.w3.org/2000/svg">
<g clip-path="url(#clip0_1007_6736)">
<path fill-rule="evenodd" clip-rule="evenodd" d="M0 29.3515H29.4744L58.3209 0.5H0V29.3515Z" fill="url(#paint0_linear_1007_6736)"/>
<path fill-rule="evenodd" clip-rule="evenodd" d="M34.6099 5.92432L28.8696 5.9207V19.5707L23.8543 5.9207H18.8818L14.5996 17.3354C14.1432 14.4577 11.1662 13.4639 8.82376 12.7185C7.27732 12.2216 5.63598 11.4915 5.6512 10.6839C5.66351 10.0211 6.53126 9.40545 8.25082 9.49816C9.40612 9.55901 10.4245 9.65245 12.4519 10.6303L14.446 7.15713C12.5953 6.2155 10.0377 5.62083 7.94298 5.61865H7.93066C5.48677 5.61865 3.45068 6.41035 2.18817 7.71486C1.30884 8.62607 0.834401 9.78355 0.814844 11.0634C0.782973 12.825 1.42908 14.0745 2.78575 15.0712C3.93236 15.9114 5.39768 16.4561 6.68988 16.8566C8.28413 17.3499 9.58431 17.7794 9.5691 18.6957C9.55751 19.0282 9.43075 19.3389 9.19172 19.591C8.79479 20.0009 8.18418 20.1552 7.34106 20.1697C5.71566 20.2045 4.50893 19.9502 2.588 18.8152L0.814844 22.3362C2.72997 23.427 4.99857 24.0659 7.31353 24.0659L7.61123 24.0615C9.62632 24.0253 11.2517 23.4517 12.5512 22.4057C12.6258 22.3471 12.6931 22.2855 12.7619 22.2246L12.1861 23.7624H17.4013L18.2763 21.1012C19.1925 21.4148 20.2349 21.5872 21.3416 21.5872C22.4187 21.5872 23.4342 21.4214 24.3338 21.1273L25.177 23.7617H33.682V18.2517H35.5371C40.0192 18.2517 42.6724 15.9672 42.6724 12.1412C42.6724 7.87856 40.096 5.92287 34.6092 5.92287L34.6099 5.92432ZM21.3424 17.6034C20.6724 17.6034 20.0444 17.4875 19.5033 17.2825L21.3228 11.5415H21.3576L23.1452 17.2985C22.6078 17.489 21.9935 17.6034 21.3424 17.6034ZM34.9474 14.3055H33.6828V9.67997H34.9474C36.6337 9.67997 37.9788 10.2399 37.9788 11.9623C37.9788 13.7449 36.6337 14.3063 34.9474 14.3063" fill="white"/>
<path d="M56.2117 21.0638L58.3781 18.885C59.4741 20.3119 61.0031 21.268 63.526 21.268C65.5903 21.268 67.1577 20.5799 67.1577 18.898C67.1577 17.127 65.3484 16.6171 62.9016 16.0181C60.0854 15.3423 57.0265 14.4122 57.0265 10.666C57.0265 7.13561 59.9195 5.59424 63.6404 5.59424C66.571 5.59424 68.6868 6.56267 70.0761 8.18155L67.9733 10.2843C66.8651 9.02249 65.4882 8.33438 63.526 8.33438C61.3088 8.33438 60.3527 9.25211 60.3527 10.4755C60.3527 12.0937 61.9969 12.5275 64.2648 13.1012C67.2852 13.8147 70.4969 14.6686 70.4969 18.6445C70.4969 21.8685 68.0885 24.0733 63.4629 24.0733C60.0731 24.0733 57.6777 22.939 56.2117 21.0659V21.0638Z" fill="#002A86"/>
<path d="M72.9727 5.98831C72.9727 4.86705 73.7752 4.08984 74.8965 4.08984C76.0177 4.08984 76.8333 4.86705 76.8333 5.98831C76.8333 7.10958 76.0177 7.87447 74.8965 7.87447C73.7752 7.87447 72.9727 7.10958 72.9727 5.98831ZM73.2906 9.87507H76.5146V23.8162H73.2906V9.87507Z" fill="#002A86"/>
<path d="M78.9158 26.0335C78.9158 24.5681 79.9603 23.5229 81.49 23.1151C80.4963 22.7457 79.8719 22.1344 79.8719 21.0762C79.8719 19.9295 80.5984 19.0502 81.9232 18.5533C80.4195 17.7508 79.6162 16.3231 79.6162 14.4884C79.6162 11.838 81.3626 9.60784 85.3123 9.60784C86.7653 9.60784 87.8996 9.90119 88.7667 10.385C89.2121 8.76689 90.1168 7.72168 91.8885 7.72168H92.3347V10.5248H91.8632C90.6275 10.5248 90.0538 10.6777 89.5953 10.9964C90.5507 11.888 90.9838 13.1375 90.9838 14.4876C90.9838 17.0742 89.1614 19.2921 85.2624 19.2921C84.3577 19.2921 83.5551 19.1777 82.854 18.9481C82.6627 19.1646 82.536 19.4196 82.536 19.713C82.536 20.6684 83.6188 20.8089 86.0656 20.9364C89.5707 21.1022 92.4245 21.6122 92.4245 24.9122C92.4245 27.945 90.1943 29.4994 85.3138 29.4994C80.7266 29.4994 78.9172 28.0848 78.9172 26.0327L78.9158 26.0335ZM85.4789 27.1801C87.9895 27.1801 89.1998 26.6578 89.1998 25.2563C89.1998 24.0713 88.1807 23.8286 85.6064 23.7142C84.5351 23.6504 83.516 23.5867 82.6367 23.4208C82.1528 23.8286 81.8341 24.3762 81.8341 25.1281C81.8341 26.5427 82.7772 27.1801 85.4789 27.1801ZM87.862 14.4876C87.862 12.8695 86.9182 11.8627 85.3384 11.8627C83.7203 11.8627 82.7388 12.8695 82.7388 14.4876C82.7388 16.1826 83.7717 17.0366 85.2493 17.0366C86.8552 17.0366 87.862 16.0174 87.862 14.4876Z" fill="#002A86"/>
<path d="M94.0361 9.87494H97.1587V12.8056H97.2094C97.8468 11.2128 99.1209 9.60693 101.784 9.60693C104.779 9.60693 106.117 11.6459 106.117 14.615V23.8161H102.893V15.3929C102.893 13.5198 102.243 12.3855 100.37 12.3855C98.4451 12.3855 97.2601 13.6596 97.2601 16.0049V23.8168H94.0361V9.87494Z" fill="#002A86"/>
<path d="M108.519 20.0194C108.519 17.0243 110.965 15.6227 114.585 15.6227H117.108V14.8202C117.108 13.1383 116.293 12.2206 114.598 12.2206C113.017 12.2206 111.908 12.8956 111.042 13.9916L109.118 12.08C110.404 10.6785 112.152 9.60791 114.942 9.60791C118.484 9.60791 120.32 11.4557 120.32 14.8325V23.8164H117.21V21.2298H117.134C116.28 23.179 114.879 24.0713 112.686 24.0713C110.252 24.0713 108.52 22.6183 108.52 20.0187L108.519 20.0194ZM113.833 21.5869C115.909 21.5869 117.107 20.0194 117.107 18.3752V17.4698H115.131C113.284 17.4698 111.729 17.9674 111.729 19.713C111.729 20.8727 112.52 21.5862 113.832 21.5862L113.833 21.5869Z" fill="#002A86"/>
<path d="M121.601 9.875H125.041L127.552 18.0179C127.833 18.9356 128.189 20.2097 128.393 21.0253C128.585 20.2097 128.992 18.9356 129.272 18.0179L131.885 9.875H135.312L130.343 23.8162H126.392L121.601 9.875Z" fill="#002A86"/>
<path d="M136.555 5.98831C136.555 4.86705 137.357 4.08984 138.479 4.08984C139.6 4.08984 140.416 4.86705 140.416 5.98831C140.416 7.10958 139.6 7.87447 138.479 7.87447C137.357 7.87447 136.555 7.10958 136.555 5.98831ZM136.873 9.87507H140.097V23.8162H136.873V9.87507Z" fill="#002A86"/>
<path d="M142.463 16.8461C142.463 12.4495 145.395 9.60791 149.562 9.60791C153.729 9.60791 156.66 12.4495 156.66 16.8461C156.66 21.2428 153.729 24.0721 149.562 24.0721C145.395 24.0721 142.463 21.2428 142.463 16.8461ZM153.283 16.8461C153.283 13.8387 151.728 12.2329 149.562 12.2329C147.395 12.2329 145.84 13.8387 145.84 16.8461C145.84 19.8536 147.395 21.4594 149.562 21.4594C151.729 21.4594 153.283 19.8412 153.283 16.8461Z" fill="#002A86"/>
</g>
<defs>
<linearGradient id="paint0_linear_1007_6736" x1="29.1601" y1="0.5" x2="29.1601" y2="29.3515" gradientUnits="userSpaceOnUse">
<stop stop-color="#00B8F1"/>
<stop offset="0.016" stop-color="#00B5EF"/>
<stop offset="0.308" stop-color="#0D90D8"/>
<stop offset="0.578" stop-color="#1675C8"/>
<stop offset="0.817" stop-color="#1C64BE"/>
<stop offset="1" stop-color="#1E5FBB"/>
</linearGradient>
<clipPath id="clip0_1007_6736">
<rect width="156.66" height="29" fill="white" transform="translate(0 0.5)"/>
</clipPath>
</defs>
</svg>
