<svg width="40" height="40" viewBox="0 0 40 40" fill="none" xmlns="http://www.w3.org/2000/svg">
<rect width="40" height="40" rx="6" fill="white"/>
<path d="M25.5938 12.0312C26.2604 12.0312 26.8229 12.2604 27.2812 12.7188C27.7396 13.1771 27.9688 13.7396 27.9688 14.4062V25.5938C27.9688 26.2604 27.7396 26.8229 27.2812 27.2812C26.8229 27.7604 26.2604 28 25.5938 28H14.4062C13.7396 28 13.1667 27.7604 12.6875 27.2812C12.2292 26.8229 12 26.2604 12 25.5938V14.4062C12 13.7396 12.2292 13.1771 12.6875 12.7188C13.1667 12.2604 13.7396 12.0312 14.4062 12.0312H25.5938ZM21.5938 21.5938V18.4062H18.4062V21.5938H21.5938ZM18.4062 23.1875V26.375H21.5938V23.1875H18.4062ZM13.5938 21.5938H16.8125V18.4062H13.5938V21.5938ZM21.5938 16.8125V13.625H18.4062V16.8125H21.5938ZM23.1875 21.5938H26.375V18.4062H23.1875V21.5938ZM26.375 14.4062C26.375 13.8854 26.1146 13.625 25.5938 13.625H23.1875V16.8125H26.375V14.4062ZM13.5938 16.8125H16.8125V13.625H14.4062C14.1771 13.625 13.9792 13.6979 13.8125 13.8438C13.6667 13.9896 13.5938 14.1771 13.5938 14.4062V16.8125ZM13.5938 25.5938C13.5938 25.8229 13.6667 26.0104 13.8125 26.1562C13.9792 26.3021 14.1771 26.375 14.4062 26.375H16.8125V23.1875H13.5938V25.5938ZM26.375 23.1875H23.1875V26.375H25.5938C26.1146 26.375 26.375 26.1146 26.375 25.5938V23.1875Z" fill="#1D2D3E"/>
</svg>
