<svg width="40" height="40" viewBox="0 0 40 40" fill="none" xmlns="http://www.w3.org/2000/svg">
<g clip-path="url(#clip0_1144_62313)">
<rect width="40" height="40" rx="6" fill="#EBF8FF"/>
<path d="M27.7969 20.0312C27.8802 20.1354 27.9219 20.2812 27.9219 20.4688C27.9219 20.6562 27.8802 20.8021 27.7969 20.9062L25.1094 25C24.6094 25.6875 23.9427 26.0312 23.1094 26.0312H12.7969C12.4844 26.0312 12.2552 25.9062 12.1094 25.6562C12.026 25.5521 11.9844 25.4375 11.9844 25.3125C11.9844 25.1458 12.0365 24.9792 12.1406 24.8125L15.0156 20.5L12.1406 16.1875C12.0365 15.9792 11.9844 15.8125 11.9844 15.6875C11.9844 15.5625 12.0156 15.4375 12.0781 15.3125C12.2656 15.0625 12.5052 14.9375 12.7969 14.9375H23.1094C23.5052 14.9375 23.8802 15.0208 24.2344 15.1875C24.5885 15.3542 24.8802 15.6146 25.1094 15.9688L27.7969 20.0312ZM26.2031 20.4375L23.8281 16.75C23.7031 16.5625 23.5365 16.4688 23.3281 16.4688H14.2969L16.7031 20.0312C16.7865 20.1354 16.8281 20.2812 16.8281 20.4688C16.8281 20.6562 16.7865 20.8021 16.7031 20.9062L14.2969 24.4375H23.1719C23.2969 24.4375 23.4115 24.4062 23.5156 24.3438C23.6198 24.2812 23.724 24.1979 23.8281 24.0938L26.2031 20.4375Z" fill="#1D2D3E"/>
<line y1="39.5" x2="40" y2="39.5" stroke="#0064D9"/>
</g>
<defs>
<clipPath id="clip0_1144_62313">
<rect width="40" height="40" rx="6" fill="white"/>
</clipPath>
</defs>
</svg>
