<svg width="36" height="36" viewBox="0 0 36 36" fill="none" xmlns="http://www.w3.org/2000/svg">
<path d="M11 13.9688C10.7083 13.9688 10.4688 13.8854 10.2812 13.7188C10.0938 13.5312 10 13.2917 10 13C10 12.6875 10.0938 12.4479 10.2812 12.2812C10.4688 12.0938 10.7083 12 11 12H24.9688C25.6354 12 25.9688 12.3333 25.9688 13C25.9688 13.6458 25.6354 13.9688 24.9688 13.9688H11ZM24.9688 16.9688C25.2812 16.9688 25.5208 17.0625 25.6875 17.25C25.875 17.4375 25.9688 17.6771 25.9688 17.9688C25.9688 18.2604 25.875 18.5 25.6875 18.6875C25.5208 18.875 25.2812 18.9688 24.9688 18.9688H11C10.7083 18.9688 10.4688 18.875 10.2812 18.6875C10.0938 18.5 10 18.2604 10 17.9688C10 17.6771 10.0938 17.4375 10.2812 17.25C10.4688 17.0625 10.7083 16.9688 11 16.9688H24.9688ZM24.9688 21.9688C25.2812 21.9688 25.5208 22.0625 25.6875 22.25C25.875 22.4375 25.9688 22.6771 25.9688 22.9688C25.9688 23.2604 25.875 23.5 25.6875 23.6875C25.5208 23.875 25.2812 23.9688 24.9688 23.9688H11C10.7083 23.9688 10.4688 23.875 10.2812 23.6875C10.0938 23.5 10 23.2604 10 22.9688C10 22.6771 10.0938 22.4375 10.2812 22.25C10.4688 22.0625 10.7083 21.9688 11 21.9688H24.9688Z" fill="#1D2D3E"/>
</svg>
